<?xml version="1.0" standalone="no"?>
<!DOCTYPE svg PUBLIC "-//W3C//DTD SVG 20010904//EN"
 "http://www.w3.org/TR/2001/REC-SVG-20010904/DTD/svg10.dtd">
<svg version="1.0" xmlns="http://www.w3.org/2000/svg"
 width="674.000000pt" height="859.000000pt" viewBox="0 0 674.000000 859.000000"
 preserveAspectRatio="xMidYMid meet">

<g transform="translate(0.000000,859.000000) scale(0.100000,-0.100000)"
fill="#000000" stroke="none">
<path d="M2487 8493 c-15 -14 -6 -32 26 -52 l32 -21 -62 0 c-185 0 -375 -81
-431 -184 -16 -29 -17 -135 -22 -1381 l-5 -1350 -118 -305 c-66 -168 -123
-309 -127 -314 -5 -4 -252 -39 -549 -76 -513 -64 -544 -69 -582 -94 -48 -32
-93 -100 -109 -164 -11 -46 -12 -48 -73 -70 -71 -26 -131 -65 -160 -104 -37
-50 2 -100 126 -159 34 -16 69 -29 79 -29 11 0 20 -15 28 -49 16 -67 60 -134
110 -167 39 -26 66 -30 582 -95 297 -37 544 -71 548 -76 4 -4 62 -151 129
-325 l121 -317 0 -1328 c0 -1263 1 -1330 19 -1368 50 -110 236 -194 431 -195
l75 0 -35 -19 c-20 -10 -36 -27 -38 -40 -3 -19 1 -21 40 -21 58 0 136 24 182
55 36 24 43 25 199 25 182 0 267 14 362 58 77 36 133 85 156 137 18 38 19 116
19 1702 l0 1661 28 6 c25 5 2423 326 2436 326 3 0 6 -241 6 -535 l0 -534 30
-34 c16 -19 54 -45 82 -58 50 -22 65 -24 233 -24 167 0 184 2 231 23 28 13 67
39 85 58 l34 35 3 620 2 619 45 0 c62 0 66 18 5 26 l-50 7 0 604 c0 649 1 630
-52 680 -13 12 -46 32 -73 45 -46 21 -64 23 -220 23 -200 0 -253 -13 -316 -76
l-39 -39 0 -535 c0 -294 -3 -535 -7 -535 -15 0 -2418 320 -2440 325 l-23 5 0
1663 c0 1586 -1 1664 -19 1702 -37 82 -154 153 -295 180 -48 9 -137 15 -231
15 -148 0 -156 1 -191 25 -61 41 -195 71 -217 48z m43 -23 c0 -5 -4 -10 -9
-10 -6 0 -13 5 -16 10 -3 6 1 10 9 10 9 0 16 -4 16 -10z m128 -22 l47 -22 -45
-4 c-78 -6 -141 23 -113 52 11 11 57 0 111 -26z m494 -67 c95 -25 163 -59 210
-106 37 -37 66 -91 55 -102 -4 -3 -313 -8 -687 -11 -651 -5 -680 -4 -680 13 0
27 44 97 77 121 49 36 112 65 186 84 64 17 113 19 418 19 310 1 354 -1 421
-18z m-582 -1536 l0 -1305 -260 0 -260 0 0 85 0 85 255 0 255 0 -2 303 -3 302
-252 3 -253 2 0 915 0 915 260 0 260 0 0 -1305z m450 -325 l0 -1630 -222 2
-223 2 215 6 215 5 3 128 3 127 -216 0 -215 0 0 1495 0 1495 220 0 220 0 0
-1630z m90 950 l0 -680 -35 0 -35 0 0 680 0 680 35 0 35 0 0 -680z m310 655
l0 -25 -145 0 -145 0 0 25 0 25 145 0 145 0 0 -25z m0 -70 l0 -25 -145 0 -145
0 0 25 0 25 145 0 145 0 0 -25z m0 -65 l0 -30 -145 0 -145 0 0 30 0 30 145 0
145 0 0 -30z m0 -65 l0 -25 -145 0 -145 0 0 25 0 25 145 0 145 0 0 -25z m0
-65 l0 -30 -145 0 -145 0 0 30 0 30 145 0 145 0 0 -30z m0 -65 l0 -25 -145 0
-145 0 0 25 0 25 145 0 145 0 0 -25z m0 -65 l0 -30 -145 0 -145 0 0 30 0 30
145 0 145 0 0 -30z m0 -65 l0 -25 -145 0 -145 0 0 25 0 25 145 0 145 0 0 -25z
m0 -70 l0 -25 -145 0 -145 0 0 25 0 25 145 0 145 0 0 -25z m0 -65 l0 -30 -145
0 -145 0 0 30 0 30 145 0 145 0 0 -30z m0 -65 l0 -25 -145 0 -145 0 0 25 0 25
145 0 145 0 0 -25z m0 -65 l0 -30 -145 0 -145 0 0 30 0 30 145 0 145 0 0 -30z
m0 -65 l0 -25 -145 0 -145 0 0 25 0 25 145 0 145 0 0 -25z m0 -70 l0 -25 -145
0 -145 0 0 25 0 25 145 0 145 0 0 -25z m0 -60 l0 -25 -145 0 -145 0 0 25 0 25
145 0 145 0 0 -25z m0 -70 l0 -25 -145 0 -145 0 0 25 0 25 145 0 145 0 0 -25z
m0 -65 l0 -30 -145 0 -145 0 0 30 0 30 145 0 145 0 0 -30z m0 -65 l0 -25 -145
0 -145 0 0 25 0 25 145 0 145 0 0 -25z m0 -65 l0 -30 -145 0 -145 0 0 30 0 30
145 0 145 0 0 -30z m0 -65 l0 -25 -145 0 -145 0 0 25 0 25 145 0 145 0 0 -25z
m0 -65 c0 -19 -7 -20 -145 -20 -138 0 -145 1 -145 20 0 19 7 20 145 20 138 0
145 -1 145 -20z m-296 -125 c-1 -49 -2 -474 -3 -942 l-1 -853 -42 0 -43 0 3
946 2 945 43 -3 42 -3 -1 -90z m296 55 l0 -30 -140 0 -140 0 0 30 0 30 140 0
140 0 0 -30z m0 -65 l0 -25 -140 0 -140 0 0 25 0 25 140 0 140 0 0 -25z m0
-65 l0 -30 -140 0 -140 0 0 30 0 30 140 0 140 0 0 -30z m0 -65 l0 -25 -140 0
-140 0 0 25 0 25 140 0 140 0 0 -25z m0 -70 l0 -25 -140 0 -140 0 0 25 0 25
140 0 140 0 0 -25z m-2 -62 c-2 -16 -6 -27 -10 -25 -5 1 -66 2 -138 2 l-130 0
0 25 0 25 141 0 140 0 -3 -27z m2 -68 l0 -25 -140 0 -140 0 0 25 0 25 140 0
140 0 0 -25z m0 -65 l0 -30 -140 0 -140 0 0 30 0 30 140 0 140 0 0 -30z m-880
-270 l0 -290 -245 0 -245 0 0 290 0 290 245 0 245 0 0 -290z m880 205 l0 -25
-140 0 -140 0 0 25 0 25 140 0 140 0 0 -25z m0 -71 l0 -24 -140 0 -140 0 0 25
0 24 128 3 c70 2 133 1 140 -1 6 -2 12 -14 12 -27z m0 -59 l0 -25 -140 0 -140
0 0 25 0 25 140 0 140 0 0 -25z m0 -70 l0 -25 -140 0 -140 0 0 25 0 25 140 0
140 0 0 -25z m0 -65 l0 -30 -140 0 -140 0 0 30 0 30 140 0 140 0 0 -30z m0
-65 l0 -25 -140 0 -140 0 0 25 0 25 140 0 140 0 0 -25z m0 -65 l0 -30 -140 0
-140 0 0 30 0 30 140 0 140 0 0 -30z m0 -65 l0 -25 -140 0 -140 0 0 25 0 25
140 0 140 0 0 -25z m0 -65 l0 -30 -140 0 -140 0 0 25 0 24 128 4 c70 1 133 4
140 5 7 1 12 -10 12 -28z m3071 -21 c51 -24 99 -71 99 -98 0 -8 -99 -11 -335
-11 -314 0 -334 1 -328 18 9 25 54 72 85 88 51 27 103 33 263 31 150 -2 164
-4 216 -28z m-3071 -49 l0 -29 -140 1 -140 1 0 28 0 29 140 0 140 0 0 -30z m0
-65 l0 -25 -140 0 -140 0 0 25 0 25 140 0 140 0 0 -25z m2620 -526 l0 -521
-31 6 c-17 3 -44 6 -60 6 l-29 0 0 515 0 515 60 0 60 0 0 -521z m380 -59 l0
-579 -36 24 c-42 29 -166 70 -239 80 -27 4 -58 9 -67 12 -17 4 -18 38 -18 524
l0 519 180 0 180 0 0 -580z m170 -21 l0 -591 -22 6 c-13 3 -44 6 -70 6 l-48 0
0 585 0 585 70 0 70 0 0 -591z m-4020 391 l0 -180 -255 0 -255 0 0 -130 0
-130 258 -2 c238 -2 229 -3 -128 -8 -212 -3 -386 -5 -387 -5 -1 0 53 143 120
318 l122 317 263 0 262 0 0 -180z m850 150 l0 -30 -140 0 -140 0 0 30 0 30
140 0 140 0 0 -30z m0 -65 l0 -25 -140 0 -140 0 0 25 0 25 140 0 140 0 0 -25z
m0 -65 l0 -30 -140 0 -140 0 0 30 0 30 140 0 140 0 0 -30z m0 -65 l0 -25 -140
0 -140 0 0 25 0 25 140 0 140 0 0 -25z m0 -70 l0 -25 -140 0 -140 0 0 25 0 25
140 0 140 0 0 -25z m0 -65 l0 -30 -140 0 -140 0 0 30 0 30 140 0 140 0 0 -30z
m-850 -130 l0 -120 -250 0 -250 0 0 120 0 120 250 0 250 0 0 -120z m420 0 l0
-120 -205 0 -205 0 0 120 0 120 205 0 205 0 0 -120z m430 65 l0 -25 -140 0
-140 0 0 25 0 25 140 0 140 0 0 -25z m0 -65 l0 -30 -140 0 -140 0 0 30 0 30
140 0 140 0 0 -30z m0 -65 l0 -25 -140 0 -140 0 0 25 0 25 140 0 140 0 0 -25z
m0 -70 c0 -30 -11 -31 -172 -13 -76 8 -108 16 -108 25 0 10 32 13 140 13 l140
0 0 -25z m-785 -332 c-25 -22 -33 -23 -234 -23 -233 0 -237 1 -261 77 -26 78
-70 151 -116 192 -51 44 -33 46 26 2 42 -31 77 -70 85 -94 6 -16 25 -17 258
-15 l252 3 5 85 c4 73 5 65 8 -60 l3 -145 -26 -22z m68 149 c8 -7 84 4 240 34
125 24 232 46 237 49 15 9 12 31 -5 45 -13 11 -13 15 -3 21 38 25 38 26 38
-516 0 -502 -1 -525 -18 -525 -28 0 -34 11 -16 31 9 10 14 25 11 32 -7 20
-467 109 -484 95 -8 -7 -13 -37 -13 -84 0 -67 -2 -74 -20 -74 -17 0 -19 8 -22
83 l-3 82 -252 3 c-141 1 -253 -2 -253 -6 0 -16 -60 -85 -93 -108 -18 -12 -43
-25 -57 -29 -23 -6 -22 -5 5 13 68 43 123 135 157 260 22 83 30 296 15 381 -7
39 -6 43 10 35 29 -14 412 -17 445 -3 52 21 58 40 60 199 1 83 3 112 5 68 2
-43 9 -81 16 -86z m815 117 l252 -32 0 -29 c0 -15 -2 -28 -5 -28 -9 0 -452 50
-492 55 -41 6 -43 8 -43 41 0 29 3 34 18 30 9 -2 131 -19 270 -37z m-880 -36
l-3 -68 -241 -3 -241 -2 -26 38 c-14 22 -47 53 -73 70 l-47 32 317 0 317 0 -3
-67z m513 48 c16 -13 21 -23 14 -29 -5 -5 -95 -25 -200 -45 -104 -20 -205 -39
-222 -43 l-33 -6 0 71 0 71 209 0 c191 0 211 -2 232 -19z m-1483 -12 c-78 -41
-145 -128 -185 -239 l-23 -65 0 147 0 147 33 6 c56 9 161 23 187 23 22 1 21
-1 -12 -19z m271 7 c89 -46 181 -248 181 -395 l0 -41 -316 0 -316 0 6 48 c26
186 120 335 239 381 63 24 166 27 206 7z m-494 -208 l5 -188 -360 0 -360 0 0
145 c0 80 3 145 8 145 4 1 158 21 342 44 184 24 340 43 347 42 9 -1 14 -53 18
-188z m629 98 c71 -123 104 -311 85 -484 -16 -151 -67 -283 -130 -337 -20 -18
-20 -16 4 16 54 72 107 245 107 350 l0 39 -325 0 -325 0 0 35 0 35 325 0 325
0 0 40 c0 50 -26 179 -47 234 -9 23 -34 68 -55 101 -32 48 -34 55 -14 36 15
-14 37 -43 50 -65z m1441 29 c120 -14 227 -25 237 -25 17 0 18 -21 18 -385 0
-360 -1 -385 -17 -385 -19 0 -421 -46 -485 -55 l-38 -5 0 444 0 445 33 -5 c17
-2 131 -16 252 -29z m1435 -116 c624 -82 1144 -154 1155 -159 16 -7 13 -8 -10
-4 -16 2 -529 61 -1140 129 -610 69 -1125 127 -1142 130 -27 5 -33 11 -33 30
0 17 6 25 18 25 9 0 528 -68 1152 -151z m-3360 97 c0 -2 -8 -10 -17 -17 -16
-13 -17 -12 -4 4 13 16 21 21 21 13z m-870 -391 c0 -212 -2 -385 -5 -385 -16
0 -64 32 -91 62 -67 70 -69 80 -69 323 0 207 1 222 22 260 29 54 105 123 136
125 4 0 7 -173 7 -385z m3282 355 c95 -11 594 -67 1108 -125 514 -58 952 -108
973 -111 34 -5 37 -8 37 -40 l0 -35 -312 7 c-259 5 -334 4 -433 -10 -242 -32
-243 -53 -5 -87 85 -12 468 -14 638 -4 l112 7 0 -35 c0 -33 -3 -37 -32 -42
-27 -4 -984 -113 -2110 -239 l-198 -22 0 378 0 378 25 0 c13 0 102 -9 197 -20z
m-2467 -52 c-81 -177 -83 -423 -6 -593 17 -36 28 -65 26 -65 -10 0 -55 101
-71 161 -22 81 -25 289 -5 369 14 56 66 180 75 180 3 0 -6 -24 -19 -52z
m-1025 -303 c0 -86 -4 -135 -10 -135 -19 0 -126 58 -159 85 -39 34 -39 59 0
96 27 25 141 88 162 89 4 0 7 -61 7 -135z m5712 116 c72 -19 171 -61 181 -78
5 -8 -237 -6 -260 2 -14 5 -18 95 -5 95 5 0 43 -9 84 -19z m-4777 -116 l0 -85
-357 0 -358 0 0 85 0 85 358 0 357 0 0 -85z m4992 33 c-3 -7 -5 -2 -5 12 0 14
2 19 5 13 2 -7 2 -19 0 -25z m-997 -33 l0 -36 -62 7 c-35 4 -81 12 -103 19
l-40 12 70 11 c39 6 84 13 100 15 17 2 31 5 33 6 1 0 2 -15 2 -34z m556 28
c93 -4 158 -9 145 -13 -30 -7 -39 -27 -14 -32 55 -12 -504 -34 -601 -23 l-66
7 0 34 0 34 183 0 c101 0 260 -3 353 -7z m254 -28 c0 -16 -46 -20 -90 -8 -23
7 -21 8 15 14 66 10 75 10 75 -6z m309 4 c35 -1 35 -2 -9 -10 -25 -4 -73 -8
-106 -8 -49 -1 -63 3 -68 15 -6 15 2 16 70 10 42 -3 93 -7 113 -7z m-226 -10
c-19 -6 -40 -5 -55 0 -18 8 -12 10 32 9 50 0 52 -1 23 -9z m257 -604 l0 -585
-70 0 -70 0 0 579 c0 656 -10 588 88 590 l52 1 0 -585z m-208 555 c-24 -20
-145 -62 -214 -74 l-38 -7 0 45 0 45 53 4 c28 2 90 4 137 5 l85 1 -23 -19z
m38 -570 l0 -580 -180 0 -180 0 0 520 0 519 38 6 c145 25 288 74 307 105 3 5
8 10 11 10 2 0 4 -261 4 -580z m-4300 529 c0 -149 -92 -349 -183 -396 -64 -33
-184 -14 -263 40 -87 60 -160 200 -179 345 l-7 52 316 0 316 0 0 -41z m-676
-186 c-3 -104 -7 -189 -8 -190 -1 -1 -159 18 -351 42 -192 25 -351 45 -352 45
-2 0 -3 65 -3 145 l0 145 361 0 361 0 -8 -187z m4672 150 c-4 -4 -531 -78
-1172 -163 l-1164 -156 0 28 c0 15 3 28 8 29 33 3 2328 267 2331 268 2 0 1 -2
-3 -6z m-76 -553 l0 -520 -60 0 -60 0 0 510 0 510 23 5 c23 5 63 11 85 14 9 1
12 -109 12 -519z m-4494 313 c36 -52 74 -86 129 -116 36 -19 25 -20 -86 -7
-145 18 -129 -2 -129 168 l0 147 25 -70 c13 -38 41 -93 61 -122z m1085 -30 c0
-16 1 -47 3 -70 l2 -43 -315 0 -315 0 47 30 c26 16 59 47 74 69 l28 40 238 1
237 0 1 -27z m306 -16 c123 -24 226 -47 230 -51 5 -4 -3 -16 -16 -27 -21 -17
-41 -19 -232 -19 l-209 0 0 70 c0 39 1 70 3 70 1 0 102 -20 224 -43z m833 -7
c0 -16 -5 -30 -11 -30 -14 0 -454 -58 -496 -65 -32 -6 -33 -5 -33 30 0 21 5
35 13 36 6 0 120 13 252 28 132 16 248 29 258 30 13 1 17 -7 17 -29z m-350
-130 l0 -30 -140 0 c-129 0 -140 1 -140 18 0 16 13 20 93 29 50 5 113 10 140
11 46 2 47 1 47 -28z m-1217 8 l372 -2 -255 -6 -255 -5 -3 -127 -3 -128 256 0
255 0 0 -185 0 -185 -261 2 -261 3 -124 320 c-68 176 -124 322 -124 324 0 2 7
0 16 -3 9 -3 183 -7 387 -8z m817 -1628 l0 -1630 -220 0 -220 0 0 1495 0 1495
215 0 216 0 -3 128 -3 127 -215 5 -215 6 223 2 222 2 0 -1630z m100 783 c0
-467 3 -892 6 -945 l6 -98 -46 0 -46 0 0 945 0 945 40 0 40 0 0 -847z m-550
702 l0 -115 -250 0 -250 0 0 115 0 115 250 0 250 0 0 -115z m420 0 l0 -115
-205 0 -205 0 0 115 0 115 205 0 205 0 0 -115z m430 70 l0 -25 -140 0 -140 0
0 25 0 25 140 0 140 0 0 -25z m0 -65 l0 -30 -140 0 -140 0 0 30 0 30 140 0
140 0 0 -30z m0 -65 l0 -25 -140 0 -140 0 0 25 0 25 140 0 140 0 0 -25z m0
-65 l0 -30 -140 0 -140 0 0 28 0 27 140 2 140 2 0 -29z m0 -69 c0 -22 -4 -28
-17 -26 -10 2 -73 4 -140 4 l-123 1 0 25 0 25 140 0 140 0 0 -29z m0 -66 l0
-25 -140 0 -140 0 0 25 0 25 140 0 140 0 0 -25z m0 -65 l0 -30 -140 0 -140 0
0 30 0 30 140 0 140 0 0 -30z m0 -65 l0 -25 -140 0 -140 0 0 25 0 25 140 0
140 0 0 -25z m0 -65 l0 -30 -140 0 -140 0 0 30 0 30 140 0 140 0 0 -30z m0
-65 l0 -25 -140 0 -140 0 0 25 0 25 140 0 140 0 0 -25z m-850 -1290 l0 -1305
-260 0 -260 0 0 915 0 915 253 2 252 3 3 303 2 302 -255 0 -255 0 0 85 0 85
260 0 260 0 0 -1305z m4020 1271 c0 -27 -49 -73 -102 -97 -47 -21 -71 -24
-210 -27 -124 -3 -169 0 -213 13 -59 17 -129 70 -138 105 -5 20 1 20 329 20
282 0 334 -2 334 -14z m-3170 -51 l0 -25 -140 0 -140 0 0 25 0 25 140 0 140 0
0 -25z m0 -65 l0 -30 -140 0 -140 0 0 30 0 30 140 0 140 0 0 -30z m-880 -320
l0 -290 -245 0 -245 0 0 290 0 290 245 0 245 0 0 -290z m880 255 l0 -25 -140
0 -140 0 0 25 0 25 140 0 140 0 0 -25z m0 -65 l0 -30 -140 0 -140 0 0 30 0 30
140 0 140 0 0 -30z m0 -65 l0 -25 -140 0 -140 0 0 25 0 25 140 0 140 0 0 -25z
m0 -65 l0 -30 -140 0 -140 0 0 25 0 24 128 4 c70 1 133 4 140 5 7 1 12 -10 12
-28z m0 -69 c0 -22 -4 -28 -17 -26 -10 2 -73 4 -140 4 l-123 1 0 25 0 25 140
0 140 0 0 -29z m0 -66 l0 -25 -140 0 -140 0 0 25 0 25 140 0 140 0 0 -25z m0
-65 l0 -30 -140 0 -140 0 0 30 0 30 140 0 140 0 0 -30z m0 -65 l0 -25 -140 0
-140 0 0 25 0 25 140 0 140 0 0 -25z m0 -65 l0 -30 -140 0 -140 0 0 30 0 30
140 0 140 0 0 -30z m0 -65 l0 -25 -140 0 -140 0 0 25 0 25 140 0 140 0 0 -25z
m0 -70 l0 -25 -140 0 -140 0 0 25 0 25 140 0 140 0 0 -25z m0 -65 l0 -30 -140
0 -140 0 0 30 0 30 140 0 140 0 0 -30z m0 -65 l0 -25 -140 0 -140 0 0 25 0 25
140 0 140 0 0 -25z m0 -65 l0 -30 -140 0 -140 0 0 30 0 30 140 0 140 0 0 -30z
m0 -65 l0 -25 -140 0 -140 0 0 25 0 25 140 0 140 0 0 -25z m0 -65 l0 -30 -140
0 -140 0 0 25 0 24 138 4 c75 1 138 4 140 5 1 1 2 -11 2 -28z m-310 -730 l0
-680 -35 0 -35 0 0 680 0 680 35 0 35 0 0 -680z m310 656 c0 -21 -4 -23 -32
-20 -18 1 -84 3 -145 3 -106 1 -113 2 -113 21 0 19 7 20 145 20 l145 0 0 -24z
m0 -61 l0 -25 -145 0 -145 0 0 25 0 25 145 0 145 0 0 -25z m0 -65 l0 -30 -145
0 -145 0 0 30 0 30 145 0 145 0 0 -30z m0 -65 l0 -25 -145 0 -145 0 0 25 0 25
145 0 145 0 0 -25z m0 -65 l0 -30 -145 0 -145 0 0 30 0 30 145 0 145 0 0 -30z
m0 -65 l0 -25 -145 0 -145 0 0 25 0 25 145 0 145 0 0 -25z m0 -70 l0 -25 -145
0 -145 0 0 25 0 25 145 0 145 0 0 -25z m0 -65 l0 -30 -145 0 -145 0 0 30 0 30
145 0 145 0 0 -30z m0 -65 l0 -25 -145 0 -145 0 0 25 0 25 145 0 145 0 0 -25z
m0 -65 l0 -30 -145 0 -145 0 0 30 0 30 145 0 145 0 0 -30z m0 -65 l0 -25 -145
0 -145 0 0 25 0 25 145 0 145 0 0 -25z m0 -65 l0 -30 -145 0 -145 0 0 25 0 24
143 4 c78 1 143 4 145 5 1 1 2 -11 2 -28z m0 -65 l0 -25 -145 0 -145 0 0 25 0
25 145 0 145 0 0 -25z m0 -70 l0 -25 -145 0 -145 0 0 25 0 25 145 0 145 0 0
-25z m0 -65 l0 -30 -145 0 -145 0 0 30 0 30 145 0 145 0 0 -30z m0 -65 l0 -25
-145 0 -145 0 0 25 0 25 145 0 145 0 0 -25z m0 -65 l0 -30 -145 0 -145 0 0 30
0 30 145 0 145 0 0 -30z m0 -65 l0 -25 -145 0 -145 0 0 25 0 25 145 0 145 0 0
-25z m0 -70 l0 -25 -145 0 -145 0 0 25 0 25 145 0 145 0 0 -25z m0 -65 l0 -30
-145 0 -145 0 0 30 0 30 145 0 145 0 0 -30z m0 -65 l0 -25 -145 0 -145 0 0 25
0 25 145 0 145 0 0 -25z m0 -57 c0 -6 -11 -30 -24 -53 -38 -65 -126 -117 -251
-150 -48 -12 -126 -15 -401 -15 -188 0 -363 4 -390 9 -71 14 -154 46 -208 82
-42 29 -96 99 -96 127 0 9 171 12 685 12 514 0 685 -3 685 -12z m-725 -252
c-33 -22 -120 -50 -138 -43 -28 10 -19 33 16 45 17 5 57 10 87 11 49 1 52 0
35 -13z m-165 -41 c0 -8 -4 -15 -9 -15 -13 0 -22 16 -14 24 11 11 23 6 23 -9z"/>
<path d="M2387 6243 c-4 -3 -7 -19 -7 -34 0 -22 6 -30 25 -35 43 -11 73 34 43
64 -13 13 -50 16 -61 5z m53 -18 c10 -12 10 -18 0 -30 -25 -30 -61 -7 -46 30
3 8 12 15 19 15 8 0 20 -7 27 -15z"/>
<path d="M2394 2512 c-32 -21 -18 -72 20 -72 35 0 52 25 38 55 -11 25 -36 32
-58 17z m45 -21 c13 -23 -10 -47 -34 -37 -18 7 -20 42 -2 49 21 9 26 7 36 -12z"/>
</g>
</svg>
