<?xml version="1.0" encoding="UTF-8"?>
<svg id="Layer_1" data-name="Layer 1" xmlns="http://www.w3.org/2000/svg" viewBox="0 0 1000 1000">
  <defs>
    <style>
      .cls-1 {
        fill: #24439b;
      }

      .cls-2 {
        fill: #fff;
      }
    </style>
  </defs>
  <rect class="cls-1" width="1000" height="1000" rx="210.62" ry="210.62"/>
  <path class="cls-2" d="M363.33,478.82c3.39-7.92,5.64-16.24,9.25-24.09,22.06-47.93,70.52-80.63,123.55-82.58l1.09-52.23-9.98,5.55,3.3-13.3-16.64-3.91c5.32-4.91,13.18-3.59,19.48-6.08l6.64-21.16c2.39-.48,1.46.99,1.94,2.44,2.14,6.41,3.61,13.14,5.42,19.64l18.73,3.5c.46,2.51-.13,1.77-1.41,2.47-2.89,1.59-12.7,2.77-13.67,4.11l1.75,12.29-7.79-5.01-2.05,1.27,2.13,50.36c20.07,1.18,38.37,5.43,56.46,14.1,36.89,17.69,65.99,52.69,75.72,92.63h312.25c-.37,8.08-11.84,12.15-18.13,15.77l-291.26,43c-10.4,67.24-69.73,120.14-138.44,120.14l-1.66,13.35-1.78-13.23c-68.01-1.32-127.31-53.07-137.21-120.26l-280.7-40.23c-7.86-1.25-15.94-4.02-22.38-8.73-2.92-2.14-7.76-5.93-7.42-9.8h312.81ZM369.44,478.82h87.79l-39.99-44.45c16.89,11.22,31.82,25.62,46.11,40,6.04-11.05,17.17-18.97,29.46-21.65l3.32-75.03c-58.93.66-112.43,44.32-126.69,101.13ZM631.69,478.82c-13.09-56.62-68.4-100.92-126.69-101.13l2.34,75.46c11.61,1.84,23.76,9.24,28.8,20.11l1.61-.02,45.03-38.87c.82.94-2.54,5.01-3.35,6.08-10.23,13.6-24.34,25.5-35.53,38.37h87.79ZM633.9,537.72l-93.19,14.58c-1.58,4.8,1.67,4.13,3.78,6.47,5.12,5.66,10.07,11.35,15.52,16.71,15.56-19.99,40.58,6.93,22.82,21.73-12.13,10.1-28.64-1.95-25.62-16.68l-21.66-20.37c-7,9.83-16.73,15.16-28.33,18.11-2.63,8.72-1.59,18.66-2.22,27.79-1.06,15.37-2.55,30.75-3.33,46.13,52.95,1.6,102.89-33.66,123.54-81.49,2.04-4.72,11.23-29.95,8.69-32.97ZM456.79,559.52c1.02-1.29,3.78-4.39,3.81-5.68l-1.93-2.58-92.57-12.43c10.22,62.91,67.9,113.99,132.24,113.34l-4.43-73.92c-7.55-1.86-14.33-4.75-20.55-9.45-2.67-2.02-6.67-8.34-9.92-7.83-2.75,5.56-16.17,13.12-18.5,17.24-2.03,3.58-.52,8.71-3.05,13.62-9.42,18.3-35.63,5.74-29.16-12.5,4.57-12.89,20.41-14.12,28.39-3.85,4.35-5.51,11.51-10.7,15.68-15.96Z"/>
</svg>